# xmcd
#
# Track frame offsets:
#	150
#	16395
#	36540
#	52270
#	71403
#	93600
#	114573
#	134735
#	151110
#	166947
#
# Disc length: 2501 seconds
#
# Revision: 1
# Processed by: cddbd v1.4PL0 Copyright (c) Steve Scherf et al.
# Submitted via: audiograbber 1.81.02
#
DISCID=8c09c30a
DTITLE=Dzavoli - Balade
DYEAR=1989
DGENRE=
TTITLE0=Dugo, toplo, ljeto
TTITLE1=Dani ljubavi
TTITLE2=Nebo vraca osmijehe
TTITLE3=Dok tebe ljubim
TTITLE4=Bambina
TTITLE5=Na kraju sna
TTITLE6=Pricaj mi, o ljubavi
TTITLE7=Ostani uz mene
TTITLE8=Ponocna serenada
TTITLE9=Posljedni ples
EXTD=
EXTT0=
EXTT1=
EXTT2=
EXTT3=
EXTT4=
EXTT5=
EXTT6=
EXTT7=
EXTT8=
EXTT9=
PLAYORDER=
